<?xml version="1.0" standalone="no"?>
<!DOCTYPE svg PUBLIC "-//W3C//DTD SVG 20010904//EN"
 "http://www.w3.org/TR/2001/REC-SVG-20010904/DTD/svg10.dtd">
<svg version="1.0" xmlns="http://www.w3.org/2000/svg"
 width="300.000000pt" height="300.000000pt" viewBox="0 0 300.000000 300.000000"
 preserveAspectRatio="xMidYMid meet">
<metadata>
Created by potrace 1.11, written by Peter Selinger 2001-2013
</metadata>
<g transform="translate(0.000000,300.000000) scale(0.100000,-0.100000)"
fill="#000000" stroke="none">
<path d="M0 2860 l0 -140 1500 0 1500 0 0 140 0 140 -1500 0 -1500 0 0 -140z"/>
<path d="M1144 2045 l-346 -555 346 -555 c191 -305 351 -555 355 -555 5 0 165
250 355 555 l347 555 -347 555 c-190 305 -350 555 -355 555 -4 0 -164 -250
-355 -555z"/>
<path d="M0 140 l0 -140 1500 0 1500 0 0 140 0 140 -1500 0 -1500 0 0 -140z"/>
</g>
</svg>
